HIERARCHY
ROOT root
{
	OFFSET 0.000000 0.000000 0.000000
	CHANNELS 6 Xposition Yposition Zposition Zrotation Yrotation Xrotation
	JOINT lhip
	{
		OFFSET 0.058581 -0.082280 -0.017664
		CHANNELS 3 Zrotation Yrotation Xrotation
		JOINT lknee
		{
			OFFSET 0.043451 -0.386469 0.008037
			CHANNELS 3 Zrotation Yrotation Xrotation
			JOINT lankle
			{
				OFFSET -0.014790 -0.426874 -0.037428
				CHANNELS 3 Zrotation Yrotation Xrotation
				JOINT ltoe
				{
					OFFSET 0.041054 -0.060286 0.122042
					CHANNELS 3 Zrotation Yrotation Xrotation
					End Site
					{
						OFFSET 0.000000 0.000000 0.000000
					}
				}
			}
		}
	}
	JOINT rhip
	{
		OFFSET -0.060310 -0.090513 -0.013543
		CHANNELS 3 Zrotation Yrotation Xrotation
		JOINT rknee
		{
			OFFSET -0.043257 -0.383688 -0.004843
			CHANNELS 3 Zrotation Yrotation Xrotation
			JOINT rankle
			{
				OFFSET 0.019056 -0.420046 -0.034562
				CHANNELS 3 Zrotation Yrotation Xrotation
				JOINT rtoe
				{
					OFFSET -0.034840 -0.062106 0.130323
					CHANNELS 3 Zrotation Yrotation Xrotation
					End Site
					{
						OFFSET 0.000000 0.000000 0.000000
					}
				}
			}
		}
	}
	JOINT lowerback
	{
		OFFSET 0.004439 0.124404 -0.038385
		CHANNELS 3 Zrotation Yrotation Xrotation
		JOINT upperback
		{
			OFFSET 0.004488 0.137956 0.026820
			CHANNELS 3 Zrotation Yrotation Xrotation
			JOINT chest
			{
				OFFSET -0.002265 0.056032 0.002855
				CHANNELS 3 Zrotation Yrotation Xrotation
				JOINT lowerneck
				{
					OFFSET -0.013390 0.211636 -0.033468
					CHANNELS 3 Zrotation Yrotation Xrotation
					JOINT upperneck
					{
						OFFSET 0.010113 0.088937 0.050410
						CHANNELS 3 Zrotation Yrotation Xrotation
						End Site
						{
							OFFSET 0.000000 0.000000 0.000000
						}
					}
				}
				JOINT lclavicle
				{
					OFFSET 0.071702 0.114000 -0.018898
					CHANNELS 3 Zrotation Yrotation Xrotation
					JOINT lshoulder
					{
						OFFSET 0.122921 0.045205 -0.019046
						CHANNELS 3 Zrotation Yrotation Xrotation
						JOINT lelbow
						{
							OFFSET 0.255332 -0.015649 -0.022946
							CHANNELS 3 Zrotation Yrotation Xrotation
							JOINT lwrist
							{
								OFFSET 0.265709 0.012698 -0.007375
								CHANNELS 3 Zrotation Yrotation Xrotation
								End Site
								{
									OFFSET 0.000000 0.000000 0.000000
								}
							}
						}
					}
				}
				JOINT rclavicle
				{
					OFFSET -0.082954 0.112472 -0.023707
					CHANNELS 3 Zrotation Yrotation Xrotation
					JOINT rshoulder
					{
						OFFSET -0.113228 0.046853 -0.008472
						CHANNELS 3 Zrotation Yrotation Xrotation
						JOINT relbow
						{
							OFFSET -0.260127 -0.014369 -0.031269
							CHANNELS 3 Zrotation Yrotation Xrotation
							JOINT rwrist
							{
								OFFSET -0.269108 0.006794 -0.006027
								CHANNELS 3 Zrotation Yrotation Xrotation
								End Site
								{
									OFFSET 0.000000 0.000000 0.000000
								}
							}
						}
					}
				}
			}
		}
	}
}
MOTION
Frames: 14
Frame Time: 0.033333
-1.913445 0.678757 0.964754 79.894673 0.036017 86.623979 5.106949 2.686600 -24.870732 -3.797777 12.954907 8.116941 -0.983830 11.111840 -11.265272 0.000000 -0.000000 0.000000 -3.017434 -6.847558 20.264599 3.525575 6.608457 0.703884 3.686042 2.712555 -15.425663 0.000000 -0.000000 0.000000 1.587574 9.415175 9.621586 1.146895 -0.890896 1.487606 0.699957 2.748049 1.716014 4.319015 -6.086509 -6.950953 2.741793 -10.863385 -3.183208 -22.678218 13.070220 4.279924 -58.079843 14.337203 10.323397 -3.272998 -34.739541 28.051979 -7.867652 -10.166118 -6.832168 20.201612 0.495973 2.442314 53.623884 10.270390 10.414339 -4.902411 47.755630 -1.349167 -1.151388 11.804514 -24.397034 
-1.863036 0.679542 0.955617 79.010541 0.844171 86.945929 5.490140 3.918832 -25.739058 -3.615752 12.184001 1.219962 -0.273455 9.527496 -10.693189 0.000000 -0.000000 0.000000 -4.531583 -7.566678 23.129730 3.889269 7.647856 1.406966 5.412783 4.809232 -14.383412 0.000000 -0.000000 0.000000 2.169242 9.773105 9.026837 1.229212 -0.838954 1.995309 0.749171 3.006036 1.244160 4.563297 -6.323916 -7.417308 2.337103 -11.061857 -3.264883 -22.875843 13.979729 4.250184 -58.182902 16.153793 9.665716 -0.939661 -32.895762 26.888591 -8.536411 -9.890379 -5.734673 20.398561 0.923325 2.212413 52.676685 12.453814 10.153834 -4.027515 48.655182 -1.130290 -1.536598 12.560191 -24.022167 
-1.809409 0.680520 0.947883 78.331228 1.029442 87.002959 5.765545 3.457783 -26.234460 -3.547323 13.241091 0.866915 -0.356291 9.112571 -10.684726 0.000000 -0.000000 0.000000 -6.120544 -7.347665 25.647288 3.720411 9.116562 3.323986 6.118978 6.434444 -13.305853 0.000000 -0.000000 0.000000 1.789366 10.583490 8.283081 1.475569 -0.979457 2.624505 0.928107 3.059114 1.055309 5.007691 -6.002729 -7.878708 2.202926 -11.067782 -3.550669 -23.197227 14.061068 4.474121 -58.575347 17.149398 8.975758 1.819375 -31.216524 25.552236 -10.738317 -9.889045 -5.145206 20.936220 0.973544 2.035342 52.349932 13.897472 9.975265 -5.116559 49.544893 -1.822218 0.703090 12.739751 -23.792945 
-1.738085 0.682641 0.941105 78.046385 0.936485 87.916611 6.190794 1.683151 -27.951933 -3.575092 15.326983 8.245933 0.568729 9.239571 -6.562669 0.000000 -0.000000 0.000000 -7.707293 -6.600013 26.336023 3.545422 10.675089 7.575765 7.650418 7.057921 -8.745608 0.000000 -0.000000 0.000000 0.691639 11.599369 6.011773 2.114041 -1.349598 3.229996 0.720780 3.105696 0.658864 5.281482 -6.737831 -8.090506 2.568264 -10.333094 -3.684010 -23.096722 14.301569 4.355603 -58.357520 17.905806 8.941803 3.503774 -30.089583 24.574882 -11.726363 -9.082685 -5.538256 21.545302 0.315501 2.091790 52.788140 13.783767 10.753506 -6.799165 50.476443 -3.576576 2.099186 12.485716 -24.126315 
-1.693420 0.685463 0.939136 77.775022 0.125705 89.765056 6.101879 0.952937 -31.245531 -3.733830 15.074560 14.450092 6.358845 12.856401 -0.556356 0.000000 -0.000000 0.000000 -8.264071 -3.615230 24.475775 4.265813 11.085967 11.338240 10.505936 4.325991 -3.815163 0.000000 -0.000000 0.000000 -0.814196 12.827977 0.378763 2.508030 -2.468836 10.699220 -1.008182 3.064848 -4.363761 7.023097 -8.823263 -5.086392 3.025220 -7.840357 -6.932047 -19.786269 14.366274 3.767466 -61.717339 18.337711 13.293671 9.529187 -28.131469 17.550331 -15.785904 -10.467796 -2.301705 22.363409 1.083142 3.624872 54.156366 13.056211 10.520230 -10.770113 48.726987 -14.269836 3.245431 14.483755 -16.763878 
-1.636849 0.690826 0.941364 78.582210 -1.418420 90.728065 5.957999 -1.927669 -33.425929 -4.659387 16.950056 22.606797 8.247217 13.807736 0.239272 0.000000 -0.000000 0.000000 -9.989091 -2.689107 20.223456 5.135256 9.424782 21.668487 11.142615 4.144014 3.960106 0.000000 -0.000000 0.000000 -2.991474 13.096405 -1.021899 2.582211 -2.406580 10.532825 -1.096378 2.550988 -4.686675 7.353587 -9.070339 -4.922030 3.143275 -8.086388 -7.204179 -19.382954 13.888980 3.379420 -61.403744 17.421480 14.354964 10.288726 -28.267483 16.627070 -15.764104 -10.740184 -4.339958 22.858147 -0.228868 3.280903 55.649318 10.649480 10.718532 -12.393779 48.048538 -17.113155 4.324455 13.910375 -17.515189 
-1.582392 0.696965 0.944618 80.516888 -2.836658 90.692818 3.223639 -4.215121 -31.897619 -5.304643 15.418363 25.849131 11.222827 15.659229 -4.424174 0.000000 -0.000000 0.000000 -10.350636 -1.179305 14.976656 5.850779 5.770424 35.096904 10.272160 0.810151 9.287043 0.000000 -0.000000 0.000000 -4.981835 11.840802 -0.525732 2.852975 -1.876309 9.395463 -1.019719 2.352163 -4.146858 7.736867 -9.427073 -5.615261 3.297403 -8.400304 -7.043980 -19.262915 12.904019 2.455537 -61.239488 15.766168 14.919834 10.304123 -29.557105 14.581586 -13.445046 -10.894990 -5.440368 23.245382 -0.840574 1.855763 56.529023 6.573537 10.846010 -12.613596 47.731669 -17.819042 2.007390 13.563783 -20.042740 
-1.530936 0.703815 0.950936 81.932078 -3.961760 90.196232 0.378844 -5.252238 -28.152598 -5.629865 14.090734 26.198748 12.433553 16.927428 -7.640860 0.000000 -0.000000 0.000000 -10.878474 -1.286597 8.509264 4.009701 1.959818 47.401618 5.715640 -4.416256 13.251999 0.000000 -0.000000 0.000000 -5.897776 10.055368 1.372143 2.842341 -1.279920 7.829850 -1.268679 2.268720 -3.509131 7.524064 -9.855215 -6.013857 3.636946 -8.502380 -7.506080 -20.089462 12.611605 1.532640 -60.512443 12.503644 15.420216 9.138740 -30.948410 12.574903 -8.955734 -10.981325 -6.076692 24.056699 -2.151162 1.004364 56.682788 4.382689 10.791580 -10.678079 46.738293 -15.789460 0.072083 13.420914 -20.207394 
-1.481025 0.708400 0.961423 83.430848 -4.449191 89.503032 -2.217986 -5.247468 -22.383228 -6.035703 11.740001 23.227931 11.874119 17.760545 -9.810878 0.000000 -0.000000 0.000000 -10.219057 -1.662787 1.794764 0.628789 -0.818261 57.151815 1.491054 -9.597680 8.062266 0.000000 -0.000000 0.000000 -6.109199 8.102498 2.954195 2.573577 -1.013811 6.957371 -0.951120 1.984524 -3.118010 6.465422 -10.113724 -5.150071 4.694502 -7.413008 -8.999190 -20.916882 10.853668 0.766160 -61.046267 9.636005 15.819940 9.520215 -32.318847 8.958898 -7.081372 -11.771966 -5.438185 23.797697 -2.277050 0.169579 57.655224 1.320464 11.360634 -10.856103 44.379660 -14.003205 0.109410 13.565731 -20.365760 
-1.421051 0.713184 0.979663 86.029792 -3.879282 88.753935 -4.554718 -4.426315 -15.042505 -5.961472 5.900750 19.050014 10.758556 19.780681 -11.416023 0.000000 -0.000000 0.000000 -8.311635 -2.681556 -5.696133 -1.851073 -3.046590 62.664848 -0.108433 -13.156500 1.882954 0.000000 -0.000000 0.000000 -4.925728 5.334955 4.219835 2.519412 -1.269078 6.587294 -0.757962 1.410272 -3.181311 4.404793 -10.648775 -4.023280 5.430614 -5.819898 -8.795926 -22.145498 7.903866 1.039922 -61.197950 5.333425 16.268717 8.587461 -34.204739 6.673775 -3.660084 -12.406378 -5.706110 22.754284 -2.299552 0.091989 58.743590 -2.739274 10.888874 -9.816027 41.740051 -10.286152 -1.212057 13.425159 -20.238897 
-1.371974 0.716717 0.993413 88.627907 -3.022830 88.148174 -5.672750 -3.548128 -8.621916 -4.990822 1.704292 14.881363 9.588965 20.428459 -12.473239 0.000000 -0.000000 0.000000 -6.581470 -2.740784 -10.414377 -1.783853 -4.874196 61.420677 -0.404200 -13.975125 -2.893500 0.000000 -0.000000 0.000000 -3.692425 2.990807 4.386958 2.685237 -1.792249 7.239837 -0.642432 0.581341 -3.426490 2.518966 -10.795505 -2.503053 6.682682 -4.806027 -9.354396 -22.945131 5.161530 0.882248 -60.988274 2.232890 17.731356 7.830971 -35.679091 5.633323 -4.073354 -11.903800 -5.112858 22.081623 -2.230521 -0.680581 59.016089 -6.542455 10.824212 -9.580229 39.381144 -8.364765 -0.743347 13.342434 -19.643503 
-1.322506 0.719023 1.004209 91.691129 -1.781016 87.314163 -5.744487 -2.244240 -1.793157 -3.694951 -3.080337 10.286835 8.129555 20.440493 -13.459325 0.000000 -0.000000 0.000000 -4.687747 -2.058057 -13.859029 -0.509770 -6.775326 56.030524 -0.358151 -15.055672 -7.214680 0.000000 -0.000000 0.000000 -1.983465 0.110460 5.123309 2.692644 -2.205214 6.493739 -0.540346 -0.358760 -2.820513 1.229978 -10.582276 -1.826156 6.809768 -4.330895 -8.400308 -23.541546 3.391790 1.114937 -60.358763 -1.879058 18.072924 6.794392 -37.745233 4.369572 -4.536476 -12.726114 -0.928965 20.565768 -2.952660 -0.276744 59.167837 -9.026193 9.835004 -7.271745 37.596156 -5.288789 1.209838 12.668351 -17.494767 
-1.274322 0.720351 1.010172 93.919394 -0.556809 86.790362 -4.848198 -0.748243 3.980502 -2.654085 -6.545826 6.818375 6.339177 20.396203 -14.420206 0.000000 -0.000000 0.000000 -3.360999 -0.924008 -17.191026 0.939000 -8.065100 48.181368 -0.704004 -15.748163 -10.022068 0.000000 -0.000000 0.000000 -0.717450 -2.277112 6.140414 2.880268 -2.183128 5.649564 -0.378605 -0.724916 -2.738010 0.265971 -9.850267 -1.332611 7.013333 -4.773393 -8.195947 -23.821186 2.433551 1.131422 -60.146041 -5.851482 18.773082 6.725689 -40.763097 2.882398 -4.740161 -14.228330 0.230246 19.647880 -3.563318 -0.596543 58.942823 -12.563905 9.033152 -6.510626 37.008459 -2.689968 3.539608 12.793004 -15.933580 
-1.225822 0.721355 1.009936 95.579201 0.097736 86.234173 -3.702732 0.947495 9.562417 -2.098394 -9.593429 3.414852 4.401151 19.888668 -15.814065 0.000000 -0.000000 0.000000 -3.148800 0.073946 -19.457184 2.037439 -8.392699 37.965842 0.504096 -15.391830 -11.590484 0.000000 -0.000000 0.000000 -0.215195 -4.055481 6.432876 3.003373 -2.206794 6.264809 -0.189682 -1.170230 -2.870350 -0.095404 -9.064261 -1.181720 7.094910 -5.547650 -8.437617 -23.963375 1.707082 0.822326 -59.903456 -9.919832 19.512325 6.969599 -43.209609 0.079889 -2.370337 -15.945281 0.334393 18.781355 -4.205540 -0.751410 58.576917 -14.981416 8.535487 -5.600753 36.401245 -1.074251 3.352333 13.338891 -14.668930 
